# File created by Blade
# Date/Time:  Tue Apr 07 20:35:32 2015
# Frame Rate: 120.000 fps
#------------------------------------------------------
:FULLY-SPECIFIED
:DEGREES
1235
root 0.745634 34.239319 -2.647084 30.499908 -13.661896 -20.045302
Spine -12.130026 1.255145 1.492862
Head 5.130517 2.106952 12.441848
LeftShoulder -18.114310 38.059940 19.527409
LeftArm 65.302271 -36.338671 -74.152604
LeftForeArm -2.435291 0.000000 1.644645
LeftHand 12.578354 -0.000000 3.593956
LeftHandThumb1 -26.253704 0.000000 33.147579
RightShoulder -3.630907 1.519149 -22.127141
RightArm 4.736570 14.589658 51.228067
RightForeArm -6.136950 0.000000 15.865830
RightHand 4.087270 -0.000000 4.671715
RightHandThumb1 -24.326973 -0.000000 -32.862282
LeftUpLeg -26.239252 4.597048 16.685261
LeftLeg 10.673269 -0.000000 -0.000000
LeftFoot -5.770245 1.223284 -30.752488
LeftToeBase 0.905145 -0.000000 -0.000000
RightUpLeg -13.345135 -10.496338 -3.450216
RightLeg 96.450214 -0.000000 -0.000000
RightFoot 40.846361 -8.977658 -0.377736
RightToeBase 32.945576 -0.000000 -0.000000
1236
root 0.700233 34.235294 -2.620381 30.348919 -13.143355 -20.099361
Spine -12.232192 1.097694 1.636330
Head 5.115179 1.823280 12.472549
LeftShoulder -17.963183 37.940195 19.661514
LeftArm 65.176885 -36.280564 -73.828733
LeftForeArm -2.159439 0.000000 1.809307
LeftHand 12.569210 -0.000000 3.636016
LeftHandThumb1 -26.253704 0.000000 33.147579
RightShoulder -3.868982 1.333357 -22.194848
RightArm 4.308139 14.767174 50.895043
RightForeArm -5.963906 -0.000000 15.486352
RightHand 4.065197 0.000000 4.619304
RightHandThumb1 -24.326973 -0.000000 -32.862282
LeftUpLeg -26.192802 4.735990 16.778652
LeftLeg 10.674143 -0.000000 -0.000000
LeftFoot -5.895427 0.977458 -30.640532
LeftToeBase 1.350502 -0.000000 -0.000000
RightUpLeg -12.919180 -10.813274 -3.240554
RightLeg 96.389743 -0.000000 -0.000000
RightFoot 40.752730 -9.130226 -0.426212
RightToeBase 33.127976 -0.000000 -0.000000
1237
root 0.659885 34.228015 -2.592401 30.211505 -12.586933 -20.102457
Spine -12.360487 0.906385 1.760634
Head 5.072928 1.501434 12.517813
LeftShoulder -17.834703 37.810771 19.774369
LeftArm 64.997000 -36.198448 -73.415876
LeftForeArm -1.987839 0.000000 1.985479
LeftHand 12.562496 0.000000 3.810069
LeftHandThumb1 -26.253704 0.000000 33.147579
RightShoulder -4.095228 1.186264 -22.281934
RightArm 3.888793 14.937478 50.567708
RightForeArm -5.742159 0.000000 15.035959
RightHand 4.043516 0.000000 4.551103
RightHandThumb1 -24.326973 -0.000000 -32.862282
LeftUpLeg -26.183914 4.835667 16.840389
LeftLeg 10.635227 -0.000000 -0.000000
LeftFoot -5.857996 0.624630 -30.849420
LeftToeBase 1.237309 -0.000000 -0.000000
RightUpLeg -12.446039 -11.132577 -3.125155
RightLeg 96.268083 -0.000000 -0.000000
RightFoot 40.788066 -9.289538 -0.319819
RightToeBase 32.970523 -0.000000 -0.000000
1238
root 0.620340 34.218227 -2.566095 30.137947 -12.052018 -20.137442
Spine -12.537327 0.792289 1.890389
Head 4.993442 1.157276 12.519113
LeftShoulder -17.692800 37.665584 19.896921
LeftArm 64.759765 -36.122168 -72.929432
LeftForeArm -1.806869 -0.000000 2.157902
LeftHand 12.574601 -0.000000 3.950341
LeftHandThumb1 -26.253704 0.000000 33.147579
RightShoulder -4.335241 1.164793 -22.396423
RightArm 3.355967 15.166787 50.255721
RightForeArm -5.812148 0.000000 14.605898
RightHand 4.153505 0.000000 4.666121
RightHandThumb1 -24.326973 -0.000000 -32.862282
LeftUpLeg -26.205759 5.064148 16.851490
LeftLeg 10.560246 -0.000000 -0.000000
LeftFoot -5.891710 0.343539 -30.731646
LeftToeBase 1.284937 -0.000000 -0.000000
RightUpLeg -11.990499 -11.382573 -2.997780
RightLeg 96.095597 -0.000000 -0.000000
RightFoot 40.930398 -9.465107 -0.238944
RightToeBase 32.987338 -0.000000 -0.000000
1239
root 0.579286 34.208610 -2.549180 30.103580 -11.600483 -20.199088
Spine -12.710447 0.757745 1.966043
Head 4.843385 0.840064 12.588293
LeftShoulder -17.582491 37.542411 20.029823
LeftArm 64.608826 -36.125663 -72.544322
LeftForeArm -1.703492 -0.000000 2.300829
LeftHand 12.550768 -0.000000 4.094435
LeftHandThumb1 -26.253704 0.000000 33.147579
RightShoulder -4.567800 0.992306 -22.438598
RightArm 3.056069 15.467978 49.939146
RightForeArm -5.697221 0.000000 14.068062
RightHand 3.940974 0.000000 4.867773
RightHandThumb1 -24.326973 -0.000000 -32.862282
LeftUpLeg -26.224910 5.435964 16.816596
LeftLeg 10.449885 -0.000000 -0.000000
LeftFoot -5.922348 0.088490 -30.549076
LeftToeBase 1.204123 -0.000000 -0.000000
RightUpLeg -11.557898 -11.536148 -2.883940
RightLeg 95.894325 -0.000000 -0.000000
RightFoot 41.079316 -9.705046 -0.240596
RightToeBase 32.986414 -0.000000 -0.000000
1240
root 0.543553 34.195219 -2.533310 30.137123 -11.184736 -20.210486
Spine -12.958534 0.740369 1.984037
Head 4.665086 0.524654 12.620642
LeftShoulder -17.518215 37.456770 20.103381
LeftArm 64.421440 -36.144368 -72.055971
LeftForeArm -1.654825 -0.000000 2.456709
LeftHand 12.560957 0.000000 4.321935
LeftHandThumb1 -26.253704 0.000000 33.147579
RightShoulder -4.787444 0.999891 -22.496255
RightArm 2.635321 15.690667 49.603802
RightForeArm -5.574656 -0.000000 13.545106
RightHand 3.979070 -0.000000 4.660157
RightHandThumb1 -24.326973 -0.000000 -32.862282
LeftUpLeg -26.285131 5.836249 16.664879
LeftLeg 10.255800 -0.000000 -0.000000
LeftFoot -6.092866 0.117513 -29.770472
LeftToeBase 1.437439 -0.000000 -0.000000
RightUpLeg -11.158362 -11.614904 -2.847277
RightLeg 95.645218 -0.000000 -0.000000
RightFoot 41.139595 -10.029951 0.018240
RightToeBase 32.979967 -0.000000 -0.000000
1241
root 0.508529 34.180175 -2.520735 30.158493 -10.737461 -20.174705
Spine -13.174851 0.718241 1.951296
Head 4.424238 0.164054 12.700220
LeftShoulder -17.437139 37.367959 20.199740
LeftArm 64.318059 -36.240025 -71.702104
LeftForeArm -1.576196 -0.000000 2.614605
LeftHand 12.626408 -0.000000 4.454437
LeftHandThumb1 -26.253704 0.000000 33.147579
RightShoulder -5.032336 1.123600 -22.636521
RightArm 2.104837 15.850482 49.379113
RightForeArm -5.569622 -0.000000 13.005649
RightHand 4.205601 -0.000000 4.133444
RightHandThumb1 -24.326973 -0.000000 -32.862282
LeftUpLeg -26.354548 6.216102 16.448022
LeftLeg 10.022073 -0.000000 -0.000000
LeftFoot -6.017778 0.136577 -29.157800
LeftToeBase 0.482399 -0.000000 -0.000000
RightUpLeg -10.700234 -11.723217 -2.844921
RightLeg 95.343155 -0.000000 -0.000000
RightFoot 41.111975 -10.146697 0.092066
RightToeBase 32.926384 -0.000000 -0.000000
1242
root 0.476540 34.163252 -2.509918 30.225231 -10.289873 -20.097410
Spine -13.445060 0.663223 1.896451
Head 4.203104 -0.148117 12.744336
LeftShoulder -17.382389 37.360336 20.237427
LeftArm 64.304037 -36.469431 -71.486356
LeftForeArm -1.455564 -0.000000 2.810799
LeftHand 12.751230 -0.000000 4.511944
LeftHandThumb1 -26.253704 0.000000 33.147579
RightShoulder -5.199846 1.328436 -22.780150
RightArm 1.517106 16.108578 49.133890
RightForeArm -5.441779 -0.000000 12.494729
RightHand 4.106097 -0.000000 4.213595
RightHandThumb1 -24.326973 -0.000000 -32.862282
LeftUpLeg -26.477774 6.608858 16.132207
LeftLeg 9.750051 -0.000000 -0.000000
LeftFoot -6.321670 0.352765 -27.609590
LeftToeBase 1.128749 -0.000000 -0.000000
RightUpLeg -10.244753 -11.816528 -2.864013
RightLeg 94.964240 -0.000000 -0.000000
RightFoot 41.072185 -10.075112 0.005288
RightToeBase 32.986812 -0.000000 -0.000000
1243
root 0.443250 34.146353 -2.505220 30.372821 -9.841003 -20.038162
Spine -13.771678 0.634847 1.840302
Head 3.929967 -0.475855 12.785213
LeftShoulder -17.397438 37.387625 20.247886
LeftArm 64.352380 -36.677145 -71.275214
LeftForeArm -1.404568 0.000000 3.004278
LeftHand 12.746176 -0.000000 4.744359
LeftHandThumb1 -26.253704 0.000000 33.147579
RightShoulder -5.394209 1.480467 -22.938265
RightArm 1.028374 16.365212 48.959652
RightForeArm -5.289530 -0.000000 11.944774
RightHand 4.132803 0.000000 3.954055
RightHandThumb1 -24.326973 -0.000000 -32.862282
LeftUpLeg -26.663482 6.985951 15.837234
LeftLeg 9.439281 -0.000000 -0.000000
LeftFoot -6.494392 0.536428 -26.858820
LeftToeBase 1.747367 -0.000000 -0.000000
RightUpLeg -9.850202 -11.879218 -2.836130
RightLeg 94.524912 -0.000000 -0.000000
RightFoot 41.053936 -10.037829 -0.031566
RightToeBase 33.007052 -0.000000 -0.000000
1244
root 0.410655 34.128870 -2.505521 30.543324 -9.392466 -19.978376
Spine -14.086452 0.628105 1.786210
Head 3.593929 -0.796875 12.807982
LeftShoulder -17.377423 37.416309 20.279008
LeftArm 64.392217 -36.975932 -71.183398
LeftForeArm -1.307043 -0.000000 3.274264
LeftHand 12.738605 -0.000000 5.027811
LeftHandThumb1 -26.253704 0.000000 33.147579
RightShoulder -5.606500 1.518577 -23.099843
RightArm 0.668802 16.671630 48.843880
RightForeArm -5.173336 -0.000000 11.454151
RightHand 4.174064 -0.000000 3.791420
RightHandThumb1 -24.326973 -0.000000 -32.862282
LeftUpLeg -26.865616 7.283835 15.544913
LeftLeg 9.099183 -0.000000 -0.000000
LeftFoot -6.409305 0.852040 -26.548335
LeftToeBase 0.108153 -0.000000 -0.000000
RightUpLeg -9.461844 -11.894166 -2.775368
RightLeg 94.030196 -0.000000 -0.000000
RightFoot 40.995330 -10.105507 0.029984
RightToeBase 33.195196 -0.000000 -0.000000
